<svg width="7" height="14" viewBox="0 0 7 14" fill="none" xmlns="http://www.w3.org/2000/svg">
<path d="M6.41095 0.655039C6.53329 0.736595 6.58047 0.844947 6.57814 0.997573C6.5694 1.57953 6.56707 2.16149 6.57814 2.74287C6.5828 2.97763 6.4826 3.04928 6.26473 3.04404C5.90589 3.0353 5.54704 3.03472 5.1882 3.04404C4.66915 3.05802 4.474 3.26191 4.47051 3.77921C4.46818 4.11883 4.48158 4.45845 4.46585 4.79749C4.45536 5.02002 4.51711 5.10623 4.75479 5.09808C5.25869 5.08119 5.76317 5.10041 6.26765 5.08992C6.51697 5.08468 6.5962 5.18954 6.56707 5.42547C6.48668 6.0785 6.4127 6.73211 6.33755 7.38572C6.31775 7.55815 6.23561 7.63971 6.05211 7.63679C5.62569 7.62864 5.1981 7.64786 4.77226 7.62922C4.52585 7.61815 4.4641 7.7032 4.46526 7.94146C4.47459 9.73569 4.46934 11.5293 4.47167 13.3236C4.47167 13.4931 4.47167 13.6539 4.31322 13.7622H1.80888C1.65276 13.6539 1.64693 13.4954 1.64693 13.3247C1.64984 11.5299 1.64344 9.73452 1.6545 7.93971C1.65625 7.68631 1.59625 7.5966 1.33411 7.61582C1.00614 7.63912 0.674671 7.61873 0.344952 7.62223C0.124169 7.62456 0.00474844 7.54941 0.00940877 7.2995C0.0210596 6.66919 0.020477 6.0383 0.00940877 5.40741C0.00533098 5.16216 0.104946 5.08293 0.339127 5.09051C0.717196 5.10274 1.09585 5.08585 1.47392 5.09691C1.65858 5.10216 1.73897 5.04507 1.73548 4.85283C1.72732 4.41651 1.77276 3.97494 1.72266 3.54386C1.56188 2.16382 2.45666 1.23758 3.53087 0.862423C3.82447 0.759896 4.13904 0.764557 4.42915 0.655039H6.40979L6.41095 0.655039Z" fill="#777777"/>
</svg>
