<svg width="11" height="20" viewBox="0 0 11 20" fill="none" xmlns="http://www.w3.org/2000/svg">
<path d="M9.7682 0C9.95487 0.124444 10.0269 0.289778 10.0233 0.522667C10.01 1.41067 10.0064 2.29867 10.0233 3.18578C10.0304 3.544 9.87753 3.65333 9.54509 3.64533C8.99753 3.632 8.44998 3.63111 7.90242 3.64533C7.11042 3.66667 6.81264 3.97778 6.80731 4.76711C6.80376 5.28533 6.8242 5.80356 6.8002 6.32089C6.7842 6.66044 6.87842 6.792 7.24109 6.77956C8.00998 6.75378 8.77976 6.78311 9.54953 6.76711C9.92998 6.75911 10.0509 6.91911 10.0064 7.27911C9.88376 8.27556 9.77087 9.27289 9.6562 10.2702C9.62598 10.5333 9.50064 10.6578 9.22064 10.6533C8.56998 10.6409 7.91753 10.6702 7.26776 10.6418C6.89176 10.6249 6.79753 10.7547 6.79931 11.1182C6.81353 13.856 6.80553 16.5929 6.80909 19.3307C6.80909 19.5893 6.80909 19.8347 6.56731 20H2.74598C2.50776 19.8347 2.49887 19.5929 2.49887 19.3324C2.50331 16.5938 2.49353 13.8542 2.51042 11.1156C2.51309 10.7289 2.42153 10.592 2.02153 10.6213C1.52109 10.6569 1.01531 10.6258 0.512201 10.6311C0.175312 10.6347 -0.00691057 10.52 0.000200543 10.1387C0.0179783 9.17689 0.0170894 8.21422 0.000200543 7.25156C-0.00602168 6.87733 0.145978 6.75644 0.503312 6.768C1.0802 6.78667 1.65798 6.76089 2.23487 6.77778C2.51664 6.78578 2.63931 6.69867 2.63398 6.40533C2.62153 5.73956 2.69087 5.06578 2.61442 4.408C2.36909 2.30222 3.73442 0.888889 5.37353 0.316444C5.82153 0.16 6.30153 0.167111 6.7442 0H9.76642L9.7682 0Z" fill="white"/>
</svg>
