<svg width="20" height="20" viewBox="0 0 20 20" fill="none" xmlns="http://www.w3.org/2000/svg">
<path d="M9.99984 19.9947C8.53614 19.9947 7.07139 20.0053 5.60769 19.9926C2.94786 19.9693 0.832691 18.3354 0.168527 15.8056C0.0458472 15.3392 0.00565891 14.8601 0.00460133 14.38C0.00142857 11.4653 -0.00491694 8.55165 0.0067165 5.63694C0.0183499 2.8005 1.89451 0.559475 4.63577 0.0941373C4.989 0.0338549 5.3507 0.0063577 5.70922 0.00530012C8.51711 -0.00210298 11.325 0.00424253 14.1329 1.21905e-05C15.4126 -0.00210298 16.6119 0.270754 17.6589 1.03645C19.222 2.1797 19.9824 3.74069 19.9898 5.6655C20.0004 8.56751 20.0099 11.4706 19.9877 14.3726C19.9665 17.135 18.2363 19.284 15.6061 19.8731C15.1831 19.9683 14.7526 19.9947 14.3201 19.9947C12.8796 19.9947 11.4403 19.9947 9.99984 19.9947ZM10.0157 1.78627V1.77464C8.58797 1.77464 7.16022 1.77464 5.73354 1.77464C5.34964 1.77464 4.96679 1.79368 4.59241 1.89309C2.82835 2.36477 1.76231 3.82213 1.75914 5.785C1.75491 8.60241 1.75491 11.4198 1.76231 14.2372C1.76231 14.5714 1.78346 14.912 1.85326 15.2366C2.24034 17.0568 3.71355 18.2254 5.67643 18.237C8.55518 18.2539 11.4339 18.2529 14.3137 18.2391C16.2258 18.2296 17.6895 17.1012 18.1232 15.3466C18.248 14.8401 18.2289 14.324 18.2279 13.8089C18.2236 10.9799 18.2543 8.14977 18.2025 5.32178C18.1676 3.40967 16.5685 1.8455 14.6585 1.79579C13.1123 1.75455 11.564 1.78733 10.0168 1.78733L10.0157 1.78627Z" fill="white"/>
<path d="M9.99352 4.86043C12.8099 4.8562 15.127 7.15857 15.1397 9.97492C15.1524 12.8082 12.8416 15.1465 10.0168 15.1581C7.18986 15.1698 4.82404 12.8018 4.84202 9.97809C4.86106 7.16174 7.17294 4.86466 9.99352 4.85938V4.86043ZM10.003 13.3835C11.8877 13.3645 13.381 11.8627 13.3799 9.98867C13.3789 8.14001 11.8115 6.59064 9.97237 6.61814C8.11102 6.64564 6.61136 8.1601 6.61982 10.0014C6.62828 11.8817 8.14909 13.4026 10.0041 13.3835H10.003Z" fill="white"/>
</svg>
