<svg width="14" height="14" viewBox="0 0 14 14" fill="none" xmlns="http://www.w3.org/2000/svg">
<path d="M6.86257 13.7588C5.90332 13.7588 4.94338 13.7657 3.98413 13.7574C2.24099 13.7421 0.854793 12.6713 0.419528 11.0134C0.339128 10.7077 0.312791 10.3938 0.312098 10.0791C0.310018 8.16892 0.30586 6.25944 0.313484 4.34926C0.321108 2.49037 1.55066 1.0217 3.34717 0.716733C3.57867 0.677226 3.81571 0.659205 4.05067 0.658512C5.89084 0.653661 7.73102 0.657819 9.57119 0.655047C10.4098 0.653661 11.1958 0.83248 11.882 1.33428C12.9064 2.08352 13.4047 3.10653 13.4096 4.36797C13.4165 6.26983 13.4227 8.17239 13.4082 10.0742C13.3943 11.8846 12.2604 13.293 10.5367 13.679C10.2594 13.7414 9.97735 13.7588 9.69387 13.7588C8.74987 13.7588 7.80656 13.7588 6.86257 13.7588ZM6.87296 1.82569V1.81806C5.93728 1.81806 5.0016 1.81806 4.06661 1.81806C3.81501 1.81806 3.56411 1.83054 3.31876 1.89569C2.16267 2.20481 1.46403 3.1599 1.46195 4.44629C1.45917 6.2927 1.45917 8.13912 1.46403 9.98553C1.46403 10.2045 1.47789 10.4277 1.52363 10.6405C1.77731 11.8333 2.74279 12.5992 4.02918 12.6068C5.91579 12.6179 7.80241 12.6172 9.68971 12.6082C10.9428 12.602 11.9021 11.8624 12.1862 10.7126C12.268 10.3806 12.2556 10.0424 12.2549 9.70483C12.2521 7.85079 12.2722 5.99606 12.2382 4.14271C12.2154 2.88959 11.1674 1.8645 9.91566 1.83193C8.90235 1.8049 7.88766 1.82638 6.87365 1.82638L6.87296 1.82569Z" fill="#777777"/>
<path d="M6.85832 3.84013C8.70404 3.83736 10.2226 5.34623 10.2309 7.19195C10.2393 9.04876 8.72484 10.5812 6.87357 10.5888C5.02092 10.5964 3.47046 9.0446 3.48224 7.19403C3.49472 5.34831 5.00983 3.8429 6.85832 3.83944V3.84013ZM6.86456 9.42581C8.09966 9.41333 9.07832 8.42913 9.07762 7.20096C9.07693 5.98943 8.04976 4.97404 6.84446 4.99206C5.62461 5.01008 4.6418 6.0026 4.64734 7.20928C4.65289 8.44161 5.64956 9.43828 6.86525 9.42581H6.86456Z" fill="#777777"/>
</svg>
