<svg width="17" height="15" viewBox="0 0 17 15" fill="none" xmlns="http://www.w3.org/2000/svg">
<path d="M0.000427347 6.76659V6.06275C0.0568371 5.78241 0.0752131 5.49566 0.145298 5.21703C0.502133 3.80165 1.32648 2.70465 2.4675 1.83158C3.72732 0.867916 5.16363 0.32775 6.72687 0.107666C8.33668 -0.118828 9.91659 0.00681211 11.4559 0.534158C13.0093 1.06621 14.3503 1.9162 15.3187 3.26875C16.399 4.77771 16.6866 6.42813 16.0482 8.19093C15.5477 9.57255 14.5905 10.596 13.3653 11.3691C11.3721 12.6264 9.18411 12.9973 6.86789 12.7328C6.76789 12.7212 6.6961 12.7426 6.61832 12.7977C6.1491 13.1306 5.67901 13.4627 5.20594 13.7905C4.68928 14.1482 4.18116 14.5191 3.63202 14.8281C3.51578 14.8934 3.39826 14.9567 3.26707 14.987C3.08758 15.0285 3.01536 14.9725 3.01066 14.7909C3.00767 14.6725 3.03245 14.5575 3.06151 14.4439C3.27305 13.6131 3.56365 12.8059 3.8051 11.9841C3.83501 11.8815 3.8286 11.8289 3.72048 11.7751C3.15083 11.4913 2.62177 11.143 2.14058 10.726C1.16623 9.88152 0.459398 8.86572 0.144443 7.59906C0.0764951 7.3247 0.0581192 7.04265 0 6.76701L0.000427347 6.76659ZM12.0815 5.96617C12.0456 5.8307 12.0597 5.72984 12.0623 5.62984C12.0679 5.39053 12.0995 5.15164 12.058 4.91233C12.0085 4.62643 11.8341 4.47686 11.5661 4.49866C11.3085 4.5196 11.1213 4.72344 11.1371 5.00079C11.1888 5.89608 11.1418 6.79009 11.1144 7.68453C11.108 7.89735 11.1132 8.11145 11.17 8.31914C11.2153 8.48538 11.3132 8.59991 11.4965 8.6264C11.8238 8.67341 12.0606 8.47768 12.0653 8.1435C12.0696 7.83965 12.0683 7.53624 12.0661 7.2324C12.0653 7.11787 12.1426 7.04864 12.2243 7.01274C12.2854 6.98582 12.3144 7.08411 12.3503 7.13069C12.6781 7.55761 13.0033 7.98581 13.3285 8.41444C13.4119 8.52426 13.5093 8.61059 13.6537 8.62298C13.8661 8.64093 14.0281 8.55503 14.1362 8.37427C14.243 8.19606 14.2063 8.02726 14.0866 7.86914C13.7324 7.40248 13.3815 6.93325 13.0213 6.47086C12.9439 6.37172 12.9567 6.31702 13.0413 6.23539C13.3554 5.93198 13.6623 5.62087 13.9725 5.31318C14.0465 5.2401 14.1029 5.16019 14.1089 5.05122C14.1187 4.86831 14.0166 4.69011 13.8503 4.60806C13.6781 4.52302 13.5187 4.54267 13.3683 4.68925C13.1084 4.94181 12.8576 5.20335 12.6012 5.4589C12.4362 5.62343 12.2674 5.78412 12.0811 5.96531L12.0815 5.96617ZM4.64099 8.25546C4.63757 8.34392 4.65595 8.42683 4.71236 8.49563C4.89868 8.72384 5.31491 8.6999 5.4756 8.45204C5.57218 8.3029 5.6179 8.13153 5.67218 7.96487C5.70636 7.85889 5.76106 7.81572 5.87858 7.81829C6.2461 7.82641 6.61405 7.83025 6.98071 7.81701C7.1431 7.81102 7.22174 7.86401 7.26276 8.01871C7.30464 8.17726 7.35635 8.33623 7.45336 8.47298C7.59096 8.66743 7.77771 8.70332 8.05164 8.59264C8.24267 8.51529 8.30549 8.39179 8.26275 8.15247C8.2401 8.02726 8.21233 7.90119 8.16874 7.78196C7.8166 6.82342 7.38456 5.89565 7.06362 4.92472C6.97345 4.65122 6.74909 4.51404 6.46106 4.50464C6.18969 4.49567 5.9538 4.66105 5.84525 4.93156C5.782 5.08925 5.73158 5.25207 5.6756 5.41318C5.4209 6.14779 5.09569 6.85419 4.81706 7.5794C4.73287 7.7982 4.65723 8.01957 4.64142 8.25589L4.64099 8.25546ZM4.10039 6.76915C4.10039 6.57214 4.0974 6.37471 4.10125 6.1777C4.10509 5.9807 4.12646 5.78326 4.1192 5.58668C4.11321 5.42472 4.17945 5.38369 4.32646 5.39779C4.54911 5.41873 4.77304 5.43925 4.99526 5.38668C5.21492 5.33497 5.32816 5.19053 5.33158 4.9619C5.33543 4.73284 5.22731 4.59054 5.00594 4.52985C4.86535 4.49139 4.72133 4.48584 4.57774 4.48584C3.8692 4.48498 3.16151 4.55122 2.45169 4.50293C2.20511 4.48626 2.01708 4.68156 1.994 4.92558C1.97092 5.16916 2.11195 5.33839 2.37733 5.39138C2.58972 5.43369 2.80254 5.41788 3.01493 5.3995C3.14741 5.38797 3.19997 5.426 3.20596 5.57215C3.23203 6.21787 3.21279 6.86188 3.18074 7.50632C3.16878 7.74607 3.16237 7.98623 3.20254 8.22427C3.23416 8.4123 3.30211 8.57255 3.51279 8.62555C3.85296 8.71101 4.08245 8.5482 4.12689 8.19051C4.18629 7.71572 4.1068 7.24265 4.10082 6.76872L4.10039 6.76915ZM9.48668 6.28967C9.48668 6.21531 9.48668 6.14052 9.48668 6.06616C9.48668 5.70933 9.48967 5.3525 9.48497 4.99609C9.48155 4.74994 9.38198 4.60293 9.18839 4.5337C8.83711 4.40806 8.52215 4.63327 8.53455 5.00848C8.56061 5.80206 8.5572 6.59479 8.51873 7.38795C8.50549 7.65846 8.49395 7.93111 8.54352 8.20034C8.59053 8.45503 8.72002 8.58922 8.96232 8.5717C9.38411 8.54093 9.80291 8.58922 10.223 8.58751C10.3781 8.58708 10.532 8.5764 10.6794 8.52469C10.852 8.46444 10.935 8.34606 10.9392 8.16358C10.9448 7.91017 10.8003 7.76359 10.5089 7.72854C10.2217 7.69393 9.93454 7.72897 9.64736 7.73282C9.52086 7.73453 9.48283 7.69179 9.48454 7.56786C9.49095 7.1418 9.4871 6.71573 9.48668 6.29009V6.28967Z" fill="#777777"/>
</svg>
