<svg width="25" height="23" viewBox="0 0 25 23" fill="none" xmlns="http://www.w3.org/2000/svg">
<path d="M0.000652081 10.325V9.25103C0.0867268 8.82327 0.114766 8.38572 0.221708 7.96057C0.766195 5.80087 2.02406 4.12698 3.76512 2.79478C5.68745 1.32434 7.87909 0.500107 10.2644 0.164286C12.7208 -0.181317 15.1315 0.0103945 17.4803 0.815063C19.8507 1.6269 21.8969 2.92389 23.3745 4.98773C25.023 7.29023 25.4618 9.80856 24.4876 12.4984C23.724 14.6066 22.2634 16.1683 20.3938 17.3479C17.3525 19.2663 14.0139 19.8324 10.4796 19.4287C10.327 19.4111 10.2175 19.4437 10.0988 19.5278C9.38279 20.0358 8.66551 20.5425 7.94365 21.0426C7.15529 21.5884 6.37996 22.1544 5.54204 22.6259C5.36467 22.7256 5.18535 22.8221 4.98516 22.8684C4.71129 22.9317 4.60108 22.8463 4.59391 22.5691C4.58935 22.3885 4.62717 22.2131 4.67151 22.0396C4.99429 20.772 5.4377 19.5402 5.80613 18.2863C5.85178 18.1298 5.84199 18.0496 5.67702 17.9674C4.80779 17.5344 4.00052 17.003 3.26627 16.3665C1.77953 15.078 0.700987 13.528 0.220403 11.5953C0.116723 11.1766 0.088683 10.7463 0 10.3257L0.000652081 10.325ZM18.435 9.10367C18.3802 8.89696 18.4017 8.74306 18.4056 8.59048C18.4141 8.22531 18.4624 7.8608 18.3991 7.49563C18.3235 7.05939 18.0574 6.83116 17.6486 6.86442C17.2554 6.89637 16.9698 7.20741 16.9939 7.63061C17.0728 8.99672 17.0011 10.3609 16.9593 11.7257C16.9495 12.0504 16.9574 12.3771 17.0441 12.694C17.1132 12.9477 17.2625 13.1224 17.5423 13.1629C18.0418 13.2346 18.403 12.9359 18.4102 12.426C18.4167 11.9624 18.4148 11.4994 18.4115 11.0358C18.4102 10.861 18.5282 10.7554 18.6528 10.7006C18.746 10.6595 18.7904 10.8095 18.8451 10.8806C19.3453 11.532 19.8415 12.1854 20.3378 12.8394C20.4649 13.007 20.6136 13.1387 20.834 13.1577C21.1581 13.185 21.4052 13.054 21.5702 12.7781C21.7332 12.5062 21.6771 12.2487 21.4945 12.0074C20.954 11.2953 20.4186 10.5793 19.8689 9.87377C19.7509 9.72249 19.7704 9.63902 19.8996 9.51448C20.3788 9.0515 20.847 8.57678 21.3204 8.10729C21.4333 7.99578 21.5193 7.87384 21.5285 7.70756C21.5435 7.42847 21.3876 7.15655 21.1339 7.03135C20.8712 6.90159 20.6279 6.93158 20.3984 7.15525C20.0019 7.54063 19.6192 7.9397 19.2279 8.32964C18.9762 8.5807 18.7186 8.82588 18.4343 9.10236L18.435 9.10367ZM7.0816 12.5969C7.07638 12.7318 7.10442 12.8583 7.1905 12.9633C7.47481 13.3115 8.10993 13.275 8.35511 12.8968C8.50248 12.6692 8.57226 12.4078 8.65507 12.1534C8.70724 11.9917 8.7907 11.9259 8.97003 11.9298C9.53082 11.9422 10.0923 11.948 10.6517 11.9278C10.8995 11.9187 11.0195 11.9996 11.0821 12.2356C11.146 12.4775 11.2249 12.7201 11.3729 12.9288C11.5829 13.2255 11.8679 13.2802 12.2859 13.1114C12.5773 12.9933 12.6732 12.8049 12.608 12.4397C12.5734 12.2487 12.531 12.0563 12.4645 11.8744C11.9272 10.4117 11.268 8.99607 10.7782 7.51454C10.6407 7.09721 10.2983 6.88789 9.85881 6.87355C9.44474 6.85985 9.08479 7.11221 8.91916 7.52498C8.82266 7.76559 8.74571 8.01404 8.66029 8.25987C8.27165 9.3808 7.77541 10.4587 7.35026 11.5653C7.2218 11.8991 7.10638 12.2369 7.08225 12.5975L7.0816 12.5969ZM6.25672 10.3289C6.25672 10.0283 6.25215 9.72705 6.25802 9.42645C6.26389 9.12584 6.29649 8.82457 6.28541 8.52462C6.27628 8.27748 6.37735 8.21488 6.60167 8.2364C6.9414 8.26835 7.28309 8.29965 7.62218 8.21944C7.95735 8.14054 8.13015 7.92014 8.13536 7.57127C8.14123 7.22176 7.97626 7.00462 7.63848 6.91202C7.42394 6.85333 7.20419 6.84486 6.98509 6.84486C5.90394 6.84355 4.8241 6.94462 3.74099 6.87094C3.36474 6.84551 3.07782 7.14351 3.04261 7.51585C3.0074 7.88753 3.22258 8.14576 3.62753 8.22662C3.95161 8.29117 4.27635 8.26705 4.60043 8.23901C4.80258 8.2214 4.88278 8.27943 4.89191 8.50245C4.93169 9.48774 4.90235 10.4704 4.85344 11.4538C4.83518 11.8196 4.8254 12.1861 4.8867 12.5493C4.93495 12.8362 5.03863 13.0807 5.36011 13.1616C5.87916 13.292 6.22933 13.0435 6.29715 12.4977C6.38779 11.7733 6.2665 11.0514 6.25737 10.3283L6.25672 10.3289ZM14.4755 9.59729C14.4755 9.48383 14.4755 9.36971 14.4755 9.25625C14.4755 8.71176 14.4801 8.16728 14.4729 7.62344C14.4677 7.24784 14.3158 7.02353 14.0204 6.91789C13.4844 6.72618 13.0038 7.06982 13.0227 7.64235C13.0625 8.85327 13.0573 10.0629 12.9986 11.2731C12.9784 11.6859 12.9608 12.1019 13.0364 12.5127C13.1081 12.9014 13.3057 13.1061 13.6754 13.0794C14.319 13.0325 14.9581 13.1061 15.5991 13.1035C15.8358 13.1029 16.0705 13.0866 16.2955 13.0077C16.5589 12.9157 16.6854 12.7351 16.692 12.4567C16.7004 12.07 16.48 11.8463 16.0353 11.7928C15.5971 11.74 15.1589 11.7935 14.7207 11.7994C14.5277 11.802 14.4697 11.7368 14.4723 11.5477C14.4821 10.8975 14.4762 10.2474 14.4755 9.59794V9.59729Z" fill="white"/>
<path d="M9.82356 8.71094C9.90833 8.72854 9.90768 8.78527 9.92268 8.82831C10.1176 9.37736 10.3087 9.92837 10.5095 10.4755C10.5637 10.6222 10.5467 10.6809 10.3765 10.677C10.0198 10.6691 9.66315 10.673 9.30711 10.6757C9.20278 10.6763 9.12714 10.6672 9.1767 10.5296C9.39384 9.92316 9.60902 9.31542 9.82356 8.71094Z" fill="white"/>
</svg>
