<svg width="20" height="20" viewBox="0 0 20 20" fill="none" xmlns="http://www.w3.org/2000/svg">
<path d="M9.99835 0.0011485C12.6331 0.0011485 15.2678 -0.00112772 17.9037 0.0011485C19.3024 0.00342472 19.9989 0.69881 19.9989 2.09186C20.0012 7.3613 20.0012 12.6319 19.9989 17.9013C19.9989 19.2363 19.2592 19.9864 17.9287 19.9875C12.6399 19.992 7.35111 19.9818 2.06232 19.9955C0.764871 20 -0.00790576 19.0781 6.10042e-05 17.9548C0.0364805 12.6285 0.0148564 7.30098 0.0182708 1.97463C0.0182708 0.709053 0.713656 0.00683905 1.97923 0.00342472C4.65265 -0.00340394 7.32493 0.00228661 9.99835 0.0011485ZM11.5803 9.98237C11.3777 9.69557 11.2696 9.54534 11.1649 9.39169C10.3204 8.15684 9.47255 6.92427 8.63376 5.68487C8.48922 5.4709 8.35265 5.31043 8.05446 5.31612C7.16446 5.33433 6.27332 5.33319 5.38218 5.31612C5.05554 5.31043 4.96108 5.43562 4.96222 5.7486C4.97019 8.55404 4.97246 11.3583 4.95994 14.1638C4.95881 14.52 5.084 14.6224 5.42088 14.6088C5.96945 14.5872 6.52029 14.6031 7.07 14.6031C7.98125 14.6031 8.43687 14.1479 8.43687 13.2374C8.43687 12.2836 8.43687 11.3299 8.43687 10.3523C8.66677 10.4171 8.7066 10.5548 8.77944 10.6584C9.61367 11.8318 10.4456 13.0063 11.2799 14.1786C11.4438 14.4096 11.5928 14.6224 11.9479 14.6111C12.8379 14.5849 13.7291 14.5929 14.6202 14.6065C14.9286 14.6111 15.0573 14.5212 15.0561 14.19C15.047 11.3845 15.047 8.58022 15.0561 5.77478C15.0573 5.42993 14.9423 5.30702 14.5963 5.31384C13.7632 5.33092 12.9278 5.33547 12.0948 5.31157C11.701 5.30019 11.5667 5.42766 11.5724 5.82827C11.5928 7.15417 11.5803 8.48007 11.5803 9.97782V9.98237Z" fill="white"/>
</svg>
