<svg width="15" height="14" viewBox="0 0 15 14" fill="none" xmlns="http://www.w3.org/2000/svg">
<g clip-path="url(#clip0_252_3)">
<path d="M7.52931 0.655782C9.256 0.655782 10.9827 0.65429 12.7101 0.655782C13.6268 0.657274 14.0833 1.113 14.0833 2.02595C14.0848 5.47932 14.0848 8.93345 14.0833 12.3868C14.0833 13.2617 13.5985 13.7533 12.7265 13.754C9.26048 13.757 5.79442 13.7503 2.32836 13.7592C1.47807 13.7622 0.971626 13.1581 0.976847 12.4219C1.00071 8.93121 0.986543 5.43979 0.988781 1.94912C0.988781 1.11971 1.44451 0.659511 2.27391 0.657274C4.02596 0.652798 5.77727 0.656528 7.52931 0.655782ZM8.56607 7.19706C8.43331 7.0091 8.36245 6.91065 8.29383 6.80995C7.7404 6.00069 7.18472 5.19291 6.63502 4.38066C6.54029 4.24043 6.45079 4.13527 6.25537 4.13899C5.6721 4.15093 5.08808 4.15018 4.50407 4.13899C4.29 4.13527 4.22809 4.21731 4.22884 4.42243C4.23406 6.26099 4.23555 8.09882 4.22735 9.93739C4.2266 10.1708 4.30865 10.238 4.52943 10.229C4.88893 10.2149 5.24994 10.2253 5.61019 10.2253C6.20738 10.2253 6.50598 9.92695 6.50598 9.33025C6.50598 8.70521 6.50598 8.08017 6.50598 7.43947C6.65665 7.48198 6.68275 7.57223 6.73049 7.64011C7.27721 8.4091 7.82244 9.17884 8.36916 9.94708C8.47657 10.0985 8.57428 10.238 8.80699 10.2305C9.39026 10.2134 9.97428 10.2186 10.5583 10.2275C10.7604 10.2305 10.8447 10.1716 10.844 9.95454C10.838 8.11597 10.838 6.27815 10.844 4.43958C10.8447 4.21358 10.7694 4.13303 10.5426 4.1375C9.99665 4.14869 9.44918 4.15167 8.90321 4.13601C8.64514 4.12855 8.55712 4.21209 8.56085 4.47464C8.57428 5.34357 8.56607 6.21251 8.56607 7.19408V7.19706Z" fill="#777777"/>
</g>
<defs>
<clipPath id="clip0_252_3">
<rect width="13.1072" height="13.1049" fill="white" transform="translate(0.976807 0.655039)"/>
</clipPath>
</defs>
</svg>
