<svg width="15" height="11" viewBox="0 0 15 11" fill="none" xmlns="http://www.w3.org/2000/svg">
<path d="M7.79625 10.5797C5.97502 10.5957 4.47247 10.5701 2.96992 10.5209C2.72611 10.5132 2.47973 10.4895 2.23976 10.4441C1.23763 10.2559 0.650182 9.6832 0.507478 8.65804C0.229749 6.66338 0.234229 4.65849 0.48764 2.66448C0.657221 1.33215 1.44561 0.737018 2.91872 0.688383C5.28389 0.609032 7.65035 0.610312 10.0168 0.639109C10.8474 0.649348 11.6825 0.62823 12.5074 0.730619C13.7796 0.888041 14.3843 1.45374 14.5385 2.72463C14.7759 4.68793 14.7823 6.66018 14.5161 8.62348C14.3689 9.70752 13.7405 10.3065 12.6539 10.4626C11.8495 10.5785 11.0368 10.5324 10.228 10.5695C9.95152 10.5823 9.67379 10.5785 9.39671 10.5791C8.75742 10.5804 8.11749 10.5791 7.79625 10.5791V10.5797ZM6.19963 5.60302C6.19963 6.22119 6.19707 6.83936 6.20027 7.45817C6.20283 7.8978 6.37113 7.99507 6.75317 7.77494C7.834 7.15357 8.91292 6.53028 9.9912 5.90443C10.3432 5.70029 10.3457 5.50959 9.9944 5.3061C8.90716 4.67449 7.81865 4.04608 6.72821 3.42087C6.38009 3.22122 6.20539 3.31912 6.20155 3.71588C6.19579 4.34493 6.20027 4.97398 6.19899 5.60302H6.19963Z" fill="#777777"/>
</svg>
