<svg width="22" height="16" viewBox="0 0 22 16" fill="none" xmlns="http://www.w3.org/2000/svg">
<path d="M11.4409 15.1957C8.66194 15.2201 6.36923 15.181 4.07651 15.1059C3.70448 15.0941 3.32855 15.058 2.96238 14.9887C1.43325 14.7016 0.536869 13.8277 0.31912 12.2634C-0.104661 9.21979 -0.0978259 6.16056 0.28885 3.11793C0.54761 1.08496 1.7506 0.176854 3.9984 0.102644C7.60737 -0.0184363 11.2183 -0.0164834 14.8292 0.027457C16.0967 0.0430803 17.3709 0.0108573 18.6296 0.16709C20.5708 0.407297 21.4935 1.27048 21.7288 3.20972C22.0911 6.20548 22.1009 9.21491 21.6947 12.2107C21.4701 13.8648 20.5112 14.7787 18.8532 15.017C17.6258 15.1937 16.3857 15.1234 15.1514 15.1801C14.7296 15.1996 14.3058 15.1937 13.883 15.1947C12.9076 15.1967 11.9311 15.1947 11.4409 15.1947V15.1957ZM9.00467 7.60181C9.00467 8.54506 9.00077 9.48832 9.00565 10.4325C9.00956 11.1034 9.26636 11.2518 9.84931 10.9159C11.4985 9.96775 13.1448 9.01669 14.7902 8.06172C15.3272 7.75023 15.3311 7.45925 14.795 7.14873C13.136 6.18497 11.4751 5.2261 9.81122 4.2721C9.28003 3.96745 9.01346 4.11684 9.0076 4.72225C8.99882 5.6821 9.00565 6.64195 9.0037 7.60181H9.00467Z" fill="white"/>
</svg>
